<svg xmlns="http://www.w3.org/2000/svg" width="56" height="56" viewBox="0 0 56 56"><g><g><g><g><g><path fill="#1d00ff" d="M31.617 5.717A2.92 2.92 0 0 1 28.7 8.633a2.92 2.92 0 0 1-2.917-2.916A2.92 2.92 0 0 1 28.7 2.8a2.92 2.92 0 0 1 2.917 2.917zm2.333 0A5.256 5.256 0 0 0 28.7.467a5.256 5.256 0 0 0-5.25 5.25 5.256 5.256 0 0 0 5.25 5.25 5.256 5.256 0 0 0 5.25-5.25z"/></g></g><g><g><path fill="#1d00ff" d="M53.667 28.583A2.92 2.92 0 0 1 50.75 31.5a2.92 2.92 0 0 1-2.917-2.917 2.92 2.92 0 0 1 2.917-2.916 2.92 2.92 0 0 1 2.917 2.916zm2.333 0a5.256 5.256 0 0 0-5.25-5.25 5.256 5.256 0 0 0-5.25 5.25 5.256 5.256 0 0 0 5.25 5.25 5.256 5.256 0 0 0 5.25-5.25z"/></g></g><g><g><path fill="#1d00ff" d="M31.5 50.05a2.92 2.92 0 0 1-2.917 2.917 2.92 2.92 0 0 1-2.916-2.917 2.92 2.92 0 0 1 2.916-2.917A2.92 2.92 0 0 1 31.5 50.05zm2.333 0a5.256 5.256 0 0 0-5.25-5.25 5.256 5.256 0 0 0-5.25 5.25 5.256 5.256 0 0 0 5.25 5.25 5.256 5.256 0 0 0 5.25-5.25z"/></g></g><g><g><path fill="#1d00ff" d="M8.167 27.883A2.92 2.92 0 0 1 5.25 30.8a2.92 2.92 0 0 1-2.917-2.917 2.92 2.92 0 0 1 2.917-2.916 2.92 2.92 0 0 1 2.917 2.916zm2.333 0a5.256 5.256 0 0 0-5.25-5.25A5.256 5.256 0 0 0 0 27.883a5.256 5.256 0 0 0 5.25 5.25 5.256 5.256 0 0 0 5.25-5.25z"/></g></g><g><g><path fill="#1d00ff" d="M35.785 3.48a1.167 1.167 0 0 0 .337-2.283l-.116-.035a1.167 1.167 0 1 0-.667 2.236l.107.032c.113.034.227.05.339.05zM4.84 42.725a1.167 1.167 0 0 0 1.005-1.757A25.644 25.644 0 0 1 2.333 28C2.333 13.847 13.847 2.333 28 2.333c.62 0 1.247.023 1.863.067A1.168 1.168 0 0 0 30.03.073 28.483 28.483 0 0 0 28 0C20.521 0 13.49 2.912 8.201 8.201 2.912 13.49 0 20.521 0 28a27.98 27.98 0 0 0 3.833 14.148c.217.37.607.577 1.007.577zm4.346 4.442c.47-.44.495-1.179.055-1.65l-.075-.08a1.166 1.166 0 1 0-1.713 1.584l.084.091a1.163 1.163 0 0 0 1.649.055zM28 56c7.479 0 14.51-2.913 19.799-8.201C53.088 42.51 56 35.479 56 28c0-10.103-5.475-19.46-14.29-24.419a1.167 1.167 0 0 0-1.143 2.034A25.723 25.723 0 0 1 53.667 28c0 14.153-11.514 25.667-25.667 25.667a25.52 25.52 0 0 1-14.54-4.513 1.167 1.167 0 0 0-1.324 1.922A27.844 27.844 0 0 0 28 56z"/></g></g><g><g><path fill="#1d00ff" d="M10.57 12.988c.368 0 .73-.174.957-.498l.05-.07a1.167 1.167 0 1 0-1.875-1.388l-.086.12a1.167 1.167 0 0 0 .954 1.836zm35.397 28.29c.644 0 1.166-.522 1.166-1.167V14.272a5.45 5.45 0 0 0-5.444-5.444H15.917a1.167 1.167 0 1 0 0 2.333H41.69a3.115 3.115 0 0 1 3.111 3.111v25.84c0 .644.522 1.166 1.167 1.166zm-4.278 5.66c.578 0 1.058-.42 1.15-.972.348.44.972.577 1.479.297.043-.024.086-.048.129-.074a1.166 1.166 0 1 0-1.184-2.01 2.975 2.975 0 0 1-.073.041c-.324.179-.53.49-.586.828a1.165 1.165 0 0 0-.915-.442H14.078a3.115 3.115 0 0 1-3.111-3.112v-24a1.167 1.167 0 1 0-2.334 0v24a5.45 5.45 0 0 0 5.445 5.445h27.61z"/></g></g><g><g><path fill="#1d00ff" d="M23.332 36.633a1.167 1.167 0 0 1-.98-1.798c3.538-5.498 10.272-15.968 10.486-16.31a1.167 1.167 0 0 1 1.996 1.209c-.117.194-8.081 12.574-10.52 16.364a1.166 1.166 0 0 1-.982.535z"/></g></g><g><g><path fill="#1d00ff" d="M35.001 34.3a1.165 1.165 0 0 1-.648-2.137l5.816-3.878-4.827-4.827a1.167 1.167 0 0 1 1.65-1.65l5.833 5.834a1.167 1.167 0 0 1-.178 1.795l-7 4.667a1.162 1.162 0 0 1-.646.196z"/></g></g><g><g><path fill="#1d00ff" d="M19.833 34.3c-.298 0-.597-.114-.825-.342l-5.833-5.833a1.167 1.167 0 0 1 .178-1.796l7-4.666a1.167 1.167 0 1 1 1.294 1.94l-5.816 3.878 4.827 4.827a1.167 1.167 0 0 1-.825 1.992z"/></g></g></g><g><path fill="#1d00ff" d="M14 15.633V13.3h2.333v2.333z"/></g><g><path fill="#1d00ff" d="M40.833 15.633V13.3h2.334v2.333z"/></g><g><path fill="#1d00ff" d="M40.833 42.467v-2.334h2.334v2.334z"/></g><g><path fill="#1d00ff" d="M14 42.467v-2.334h2.333v2.334z"/></g></g></g></svg>